<svg width="20" height="22" viewBox="0 0 20 22" fill="none" xmlns="http://www.w3.org/2000/svg">
<g id="Group 37009">
<path id="Vector (Stroke)" fill-rule="evenodd" clip-rule="evenodd" d="M13.5624 5.37599C13.5624 3.13077 11.6334 1.33244 9.34748 1.55421L9.34469 1.55447C7.48017 1.72849 5.88508 3.61782 5.88508 5.57048V6.56342C5.88508 6.98743 5.54135 7.33115 5.11734 7.33115C4.69334 7.33115 4.34961 6.98743 4.34961 6.56342V5.57048C4.34961 2.91719 6.4594 0.282451 9.2006 0.0257794C12.4008 -0.283882 15.0979 2.23729 15.0979 5.37599V6.78862C15.0979 7.21263 14.7542 7.55636 14.3302 7.55636C13.9061 7.55636 13.5624 7.21263 13.5624 6.78862V5.37599Z" fill="#050123"/>
<path id="Vector (Stroke)_2" fill-rule="evenodd" clip-rule="evenodd" d="M0.895041 7.73808C1.80139 6.66053 3.3553 6.13379 5.6309 6.13379H13.8201C16.0957 6.13379 17.6496 6.66053 18.5559 7.73808C19.455 8.80693 19.5391 10.2117 19.3943 11.5207L19.3931 11.5315L18.6261 17.6669C18.5129 18.7174 18.2479 19.868 17.3103 20.7245C16.3776 21.5766 14.9326 22.0003 12.7964 22.0003H6.65454C4.51835 22.0003 3.07335 21.5766 2.14066 20.7245C1.20306 19.868 0.938036 18.7173 0.824867 17.6668L0.0566108 11.5207C-0.0882388 10.2117 -0.00399837 8.80693 0.895041 7.73808ZM1.58226 11.3465L2.35098 17.4963C2.45319 18.4503 2.66493 19.1237 3.17631 19.5909C3.69464 20.0645 4.67568 20.4648 6.65454 20.4648H12.7964C14.7753 20.4648 15.7563 20.0645 16.2746 19.5909C16.786 19.1237 16.9979 18.4503 17.1001 17.4964L17.1015 17.4829L17.8687 11.3464C17.9992 10.1605 17.863 9.29967 17.3808 8.72645C16.9053 8.16104 15.9154 7.66926 13.8201 7.66926H5.6309C3.53553 7.66926 2.54568 8.16104 2.07011 8.72645C1.58794 9.29969 1.45171 10.1606 1.58226 11.3465Z" fill="#050123"/>
<path id="Vector (Stroke)_3" fill-rule="evenodd" clip-rule="evenodd" d="M12.2773 10.9963C12.2773 10.431 12.7356 9.97266 13.301 9.97266H13.3102C13.8755 9.97266 14.3338 10.431 14.3338 10.9963C14.3338 11.5616 13.8755 12.0199 13.3102 12.0199H13.301C12.7356 12.0199 12.2773 11.5616 12.2773 10.9963Z" fill="#050123"/>
<path id="Vector (Stroke)_4" fill-rule="evenodd" clip-rule="evenodd" d="M5.11133 10.9963C5.11133 10.431 5.56963 9.97266 6.13497 9.97266H6.14417C6.70951 9.97266 7.16781 10.431 7.16781 10.9963C7.16781 11.5616 6.70951 12.0199 6.14417 12.0199H6.13497C5.56963 12.0199 5.11133 11.5616 5.11133 10.9963Z" fill="#050123"/>
</g>
</svg>
