<svg width="33" height="33" viewBox="0 0 33 33" fill="none" xmlns="http://www.w3.org/2000/svg">
<g id="Filter">
<rect width="33" height="33" rx="6" fill="#1EA59A" fill-opacity="0.1"/>
<g id="vuesax/bold/sort">
<g id="sort">
<path id="Vector" d="M19.9044 8.37476H13.0956C10.1381 8.37476 8.375 10.1379 8.375 13.0954V19.896C8.375 22.8616 10.1381 24.6248 13.0956 24.6248H19.8963C22.8538 24.6248 24.6169 22.8616 24.6169 19.9041V13.0954C24.625 10.1379 22.8619 8.37476 19.9044 8.37476ZM17.5806 20.5623H15.4113C15.0781 20.5623 14.8019 20.286 14.8019 19.9529C14.8019 19.6198 15.0781 19.3435 15.4113 19.3435H17.5806C17.9138 19.3435 18.19 19.6198 18.19 19.9529C18.19 20.286 17.9219 20.5623 17.5806 20.5623ZM19.75 17.1091H13.25C12.9169 17.1091 12.6406 16.8329 12.6406 16.4998C12.6406 16.1666 12.9169 15.8904 13.25 15.8904H19.75C20.0831 15.8904 20.3594 16.1666 20.3594 16.4998C20.3594 16.8329 20.0831 17.1091 19.75 17.1091ZM21.375 13.656H11.625C11.2919 13.656 11.0156 13.3798 11.0156 13.0466C11.0156 12.7135 11.2919 12.4373 11.625 12.4373H21.375C21.7081 12.4373 21.9844 12.7135 21.9844 13.0466C21.9844 13.3798 21.7081 13.656 21.375 13.656Z" fill="#1EA59A"/>
</g>
</g>
</g>
</svg>
