<svg width="22" height="22" viewBox="0 0 22 22" fill="none" xmlns="http://www.w3.org/2000/svg">
<g id="Flag_of_Azerbaijan 1">
<path id="Vector" d="M26 -4H-4V26H26V-4Z" fill="#509E2F"/>
<path id="Vector_2" d="M26 -4H-4V16H26V-4Z" fill="#EF3340"/>
<path id="Vector_3" d="M26 -4H-4V6H26V-4Z" fill="#00B5E2"/>
<path id="Vector_4" d="M9.5 15.5C11.9853 15.5 14 13.4853 14 11C14 8.51472 11.9853 6.5 9.5 6.5C7.01472 6.5 5 8.51472 5 11C5 13.4853 7.01472 15.5 9.5 15.5Z" fill="white"/>
<path id="Vector_5" d="M10.5 14.75C12.5711 14.75 14.25 13.0711 14.25 11C14.25 8.92893 12.5711 7.25 10.5 7.25C8.42893 7.25 6.75 8.92893 6.75 11C6.75 13.0711 8.42893 14.75 10.5 14.75Z" fill="#EF3340"/>
<path id="Vector_6" d="M14.5 8.5L14.9784 9.84515L16.2677 9.23225L15.6548 10.5217L17 11L15.6548 11.4783L16.2677 12.7678L14.9784 12.1548L14.5 13.5L14.0216 12.1548L12.7323 12.7678L13.3452 11.4783L12 11L13.3452 10.5217L12.7323 9.23225L14.0216 9.84515L14.5 8.5Z" fill="white"/>
</g>
</svg>
