<svg width="23" height="23" viewBox="0 0 23 23" fill="none" xmlns="http://www.w3.org/2000/svg">
<g id="icn bxs-star">
<path id="Vector" d="M20.5969 8.41964C20.5392 8.24983 20.4331 8.10061 20.2916 7.99043C20.1501 7.88024 19.9795 7.81389 19.8007 7.79959L14.5716 7.38408L12.3087 2.37506C12.2367 2.21373 12.1195 2.07671 11.9712 1.98052C11.823 1.88434 11.6501 1.8331 11.4734 1.83301C11.2968 1.83291 11.1238 1.88395 10.9755 1.97998C10.8272 2.076 10.7098 2.2129 10.6375 2.37415L8.37473 7.38408L3.14558 7.79959C2.96989 7.8135 2.80193 7.87774 2.66179 7.98462C2.52165 8.0915 2.41527 8.23648 2.35537 8.40224C2.29548 8.56799 2.2846 8.74749 2.32405 8.91926C2.3635 9.09103 2.4516 9.2478 2.57781 9.37081L6.44212 13.1379L5.07544 19.0559C5.03394 19.235 5.04724 19.4225 5.11361 19.594C5.17999 19.7655 5.29637 19.913 5.44765 20.0175C5.59894 20.1221 5.77815 20.1787 5.96202 20.1801C6.1459 20.1815 6.32595 20.1276 6.47881 20.0254L11.4731 16.6958L16.4675 20.0254C16.6237 20.1291 16.808 20.1825 16.9955 20.1784C17.183 20.1743 17.3647 20.1129 17.5162 20.0024C17.6678 19.8919 17.7819 19.7377 17.8431 19.5604C17.9044 19.3832 17.9099 19.1914 17.8589 19.0109L16.1813 13.1406L20.3419 9.39649C20.6143 9.15067 20.7143 8.76727 20.5969 8.41964Z" fill="#FFC402"/>
</g>
</svg>
