<svg width="26" height="25" viewBox="0 0 26 25" fill="none" xmlns="http://www.w3.org/2000/svg">
<path id="Vector" d="M18.7258 0H8.25078C3.70078 0 0.988281 2.7125 0.988281 7.2625V17.725C0.988281 22.2875 3.70078 25 8.25078 25H18.7133C23.2633 25 25.9758 22.2875 25.9758 17.7375V7.2625C25.9883 2.7125 23.2758 0 18.7258 0ZM16.9758 13.1625L12.5633 17.575C12.3758 17.7625 12.1383 17.85 11.9008 17.85C11.6633 17.85 11.4258 17.7625 11.2383 17.575C10.8758 17.2125 10.8758 16.6125 11.2383 16.25L14.9883 12.5L11.2383 8.75C10.8758 8.3875 10.8758 7.7875 11.2383 7.425C11.6008 7.0625 12.2008 7.0625 12.5633 7.425L16.9758 11.8375C17.3508 12.2 17.3508 12.8 16.9758 13.1625Z" fill="#C1BFC8"/>
</svg>
