<svg width="70" height="70" viewBox="0 0 70 70" fill="none" xmlns="http://www.w3.org/2000/svg">
<g id="users-profiles-01">
<path id="Icon (Stroke)" fill-rule="evenodd" clip-rule="evenodd" d="M27.0651 12.6526C23.3522 12.6526 20.3423 15.6625 20.3423 19.3755C20.3423 23.0884 23.3522 26.0983 27.0651 26.0983C30.778 26.0983 33.7879 23.0884 33.7879 19.3755C33.7879 15.6625 30.778 12.6526 27.0651 12.6526ZM15.0392 19.3755C15.0392 12.7338 20.4234 7.34961 27.0651 7.34961C33.7068 7.34961 39.0909 12.7338 39.0909 19.3755C39.0909 26.0171 33.7068 31.4013 27.0651 31.4013C20.4234 31.4013 15.0392 26.0171 15.0392 19.3755ZM42.8049 10.2628C43.6775 9.08675 45.3382 8.84076 46.5143 9.71334C49.4615 11.9001 51.3799 15.4143 51.3799 19.376C51.3799 23.3377 49.4615 26.8518 46.5143 29.0386C45.3382 29.9112 43.6775 29.6652 42.8049 28.4892C41.9323 27.3131 42.1783 25.6524 43.3544 24.7798C45.0114 23.5503 46.0768 21.5879 46.0768 19.376C46.0768 17.1641 45.0114 15.2016 43.3544 13.9721C42.1783 13.0995 41.9323 11.4388 42.8049 10.2628ZM4.34871 50.6219C4.34946 43.9807 9.73339 38.5974 16.3746 38.5974H37.3665C44.0086 38.5974 49.3929 43.9822 49.3923 50.6243L49.3915 59.9978C49.3913 61.4622 48.2041 62.6492 46.7397 62.6491C45.2753 62.6489 44.0883 61.4617 44.0884 59.9973L44.0893 50.6238C44.0896 46.9107 41.0796 43.9004 37.3665 43.9004H16.3746C12.6619 43.9004 9.65216 46.9098 9.65174 50.6225L9.65069 59.9978C9.65052 61.4622 8.46326 62.6492 6.99887 62.6491C5.53448 62.6489 4.34749 61.4616 4.34766 59.9972L4.34871 50.6219ZM50.9733 41.2494C50.9733 39.785 52.1604 38.5979 53.6248 38.5979C60.2669 38.5979 65.6513 43.9827 65.6507 50.6248L65.6498 59.9983C65.6497 61.4627 64.4625 62.6497 62.9981 62.6496C61.5337 62.6494 60.3467 61.4622 60.3468 59.9978L60.3476 50.6243C60.348 46.9112 57.338 43.9009 53.6248 43.9009C52.1604 43.9009 50.9733 42.7138 50.9733 41.2494Z" fill="#1EA59A"/>
</g>
</svg>
