<svg width="70" height="70" viewBox="0 0 70 70" fill="none" xmlns="http://www.w3.org/2000/svg">
<g id="message-square-typing">
<path id="Vector (Stroke)" fill-rule="evenodd" clip-rule="evenodd" d="M14 9.5C11.5147 9.5 9.5 11.5147 9.5 14V41.3913C9.5 43.8766 11.5147 45.8913 14 45.8913H19.4783C20.859 45.8913 21.9783 47.0106 21.9783 48.3913V56.9645L32.3192 46.6235C32.788 46.1547 33.4239 45.8913 34.087 45.8913H56C58.4853 45.8913 60.5 43.8766 60.5 41.3913V14C60.5 11.5147 58.4853 9.5 56 9.5H14ZM4.5 14C4.5 8.7533 8.75329 4.5 14 4.5H56C61.2467 4.5 65.5 8.75329 65.5 14V41.3913C65.5 46.638 61.2467 50.8913 56 50.8913H35.1225L21.246 64.7678C20.531 65.4828 19.4557 65.6966 18.5216 65.3097C17.5874 64.9227 16.9783 64.0111 16.9783 63V50.8913H14C8.7533 50.8913 4.5 46.638 4.5 41.3913V14ZM21 25.5C22.3807 25.5 23.5 26.6193 23.5 28V28.2632C23.5 29.6439 22.3807 30.7632 21 30.7632C19.6193 30.7632 18.5 29.6439 18.5 28.2632V28C18.5 26.6193 19.6193 25.5 21 25.5ZM35 25.5C36.3807 25.5 37.5 26.6193 37.5 28V28.2632C37.5 29.6439 36.3807 30.7632 35 30.7632C33.6193 30.7632 32.5 29.6439 32.5 28.2632V28C32.5 26.6193 33.6193 25.5 35 25.5ZM49 25.5C50.3807 25.5 51.5 26.6193 51.5 28V28.2632C51.5 29.6439 50.3807 30.7632 49 30.7632C47.6193 30.7632 46.5 29.6439 46.5 28.2632V28C46.5 26.6193 47.6193 25.5 49 25.5Z" fill="#2335CC"/>
</g>
</svg>
