<svg width="70" height="70" viewBox="0 0 70 70" fill="none" xmlns="http://www.w3.org/2000/svg">
<g id="diamond">
<path id="Icon (Stroke)" fill-rule="evenodd" clip-rule="evenodd" d="M39.9508 8.67158C39.9123 8.67067 39.8736 8.67067 39.8348 8.67158H30.7088C30.6702 8.67068 30.6317 8.67068 30.5932 8.67158H18.9612C18.1791 8.67158 17.4421 9.03755 16.9694 9.66061L5.00828 25.4276C4.29023 26.3741 4.3375 27.6952 5.12136 28.588L33.1214 60.4788C33.596 61.0194 34.2806 61.3293 35 61.3293C35.7194 61.3293 36.404 61.0194 36.8787 60.4788L64.8786 28.588C65.6557 27.703 65.7097 26.3957 65.0083 25.4497L53.319 9.68268C52.8474 9.04664 52.1024 8.67158 51.3107 8.67158H39.9508ZM27.0058 13.6716H20.2026L12.0345 24.4386H22.8501L27.0058 13.6716ZM22.9344 29.4386H12.5219L28.9406 48.1388L22.9344 29.4386ZM41.1633 48.0205L57.4781 29.4386H47.2372L41.1633 48.0205ZM41.9769 29.4386H28.186L35.0209 50.719L41.9769 29.4386ZM42.1983 24.4386H28.2096L32.3653 13.6716H38.1607L42.1983 24.4386ZM47.5383 24.4386L43.5007 13.6716H50.052L58.0344 24.4386H47.5383Z" fill="#2335CC"/>
</g>
</svg>
