<svg width="70" height="70" viewBox="0 0 70 70" fill="none" xmlns="http://www.w3.org/2000/svg">
<g id="message-text-02">
<path id="Vector (Stroke)" fill-rule="evenodd" clip-rule="evenodd" d="M14 9.5C11.5147 9.5 9.5 11.5147 9.5 14V41.3913C9.5 43.8766 11.5147 45.8913 14 45.8913H19.4783C20.859 45.8913 21.9783 47.0106 21.9783 48.3913V56.9645L32.3192 46.6235C32.788 46.1547 33.4239 45.8913 34.087 45.8913H56C58.4853 45.8913 60.5 43.8766 60.5 41.3913V14C60.5 11.5147 58.4853 9.5 56 9.5H14ZM4.5 14C4.5 8.7533 8.75329 4.5 14 4.5H56C61.2467 4.5 65.5 8.75329 65.5 14V41.3913C65.5 46.638 61.2467 50.8913 56 50.8913H35.1225L21.246 64.7678C20.531 65.4828 19.4557 65.6966 18.5216 65.3097C17.5874 64.9227 16.9783 64.0111 16.9783 63V50.8913H14C8.7533 50.8913 4.5 46.638 4.5 41.3913V14ZM18.5 21C18.5 19.6193 19.6193 18.5 21 18.5H45.5C46.8807 18.5 48 19.6193 48 21C48 22.3807 46.8807 23.5 45.5 23.5H21C19.6193 23.5 18.5 22.3807 18.5 21ZM18.5 35C18.5 33.6193 19.6193 32.5 21 32.5H35C36.3807 32.5 37.5 33.6193 37.5 35C37.5 36.3807 36.3807 37.5 35 37.5H21C19.6193 37.5 18.5 36.3807 18.5 35Z" fill="#2335CC"/>
</g>
</svg>
