<svg width="70" height="70" viewBox="0 0 70 70" fill="none" xmlns="http://www.w3.org/2000/svg">
<g id="users-profiles-01">
<path id="Icon (Stroke)" fill-rule="evenodd" clip-rule="evenodd" d="M27.0661 12.6526C23.3532 12.6526 20.3432 15.6625 20.3432 19.3755C20.3432 23.0884 23.3532 26.0983 27.0661 26.0983C30.779 26.0983 33.7889 23.0884 33.7889 19.3755C33.7889 15.6625 30.779 12.6526 27.0661 12.6526ZM15.0402 19.3755C15.0402 12.7338 20.4244 7.34961 27.0661 7.34961C33.7078 7.34961 39.0919 12.7338 39.0919 19.3755C39.0919 26.0171 33.7078 31.4013 27.0661 31.4013C20.4244 31.4013 15.0402 26.0171 15.0402 19.3755ZM42.8059 10.2628C43.6785 9.08675 45.3392 8.84076 46.5152 9.71334C49.4624 11.9001 51.3809 15.4143 51.3809 19.376C51.3809 23.3377 49.4624 26.8518 46.5152 29.0386C45.3392 29.9112 43.6785 29.6652 42.8059 28.4892C41.9333 27.3131 42.1793 25.6524 43.3553 24.7798C45.0124 23.5503 46.0778 21.5879 46.0778 19.376C46.0778 17.1641 45.0124 15.2016 43.3553 13.9721C42.1793 13.0995 41.9333 11.4388 42.8059 10.2628ZM4.34969 50.6219C4.35043 43.9807 9.73437 38.5974 16.3755 38.5974H37.3675C44.0096 38.5974 49.3939 43.9822 49.3933 50.6243L49.3924 59.9978C49.3923 61.4622 48.2051 62.6492 46.7407 62.6491C45.2763 62.6489 44.0893 61.4617 44.0894 59.9973L44.0903 50.6238C44.0906 46.9107 41.0806 43.9004 37.3675 43.9004H16.3755C12.6629 43.9004 9.65313 46.9098 9.65272 50.6225L9.65166 59.9978C9.6515 61.4622 8.46424 62.6492 6.99985 62.6491C5.53546 62.6489 4.34847 61.4616 4.34863 59.9972L4.34969 50.6219ZM50.9743 41.2494C50.9743 39.785 52.1614 38.5979 53.6258 38.5979C60.2679 38.5979 65.6522 43.9827 65.6516 50.6248L65.6508 59.9983C65.6507 61.4627 64.4635 62.6497 62.9991 62.6496C61.5347 62.6494 60.3477 61.4622 60.3478 59.9978L60.3486 50.6243C60.349 46.9112 57.339 43.9009 53.6258 43.9009C52.1614 43.9009 50.9743 42.7138 50.9743 41.2494Z" fill="#2335CC"/>
</g>
</svg>
