<svg width="25" height="22" viewBox="0 0 25 22" fill="none" xmlns="http://www.w3.org/2000/svg">
<path id="Vector" d="M12.8835 21.179L12.8835 21.1789L12.8762 21.1815C12.7714 21.2185 12.584 21.25 12.3596 21.25C12.1351 21.25 11.9478 21.2185 11.8429 21.1815L11.8429 21.1815L11.8356 21.179C10.1511 20.6039 7.35464 19.0841 4.98926 16.6606C2.63293 14.2463 0.75 10.9853 0.75 6.90899C0.75 3.50059 3.49524 0.75 6.87191 0.75C8.87282 0.75 10.6438 1.71614 11.7574 3.2157C11.8989 3.40622 12.1222 3.51854 12.3596 3.51854C12.5969 3.51854 12.8202 3.40622 12.9617 3.2157C14.0749 1.71675 15.8579 0.75 17.8472 0.75C21.2239 0.75 23.9691 3.50059 23.9691 6.90899C23.9691 10.9853 22.0862 14.2463 19.7298 16.6606C17.3645 19.0841 14.568 20.6039 12.8835 21.179Z" stroke="#050123" stroke-width="1.5" stroke-linecap="round" stroke-linejoin="round"/>
</svg>
