<svg width="25" height="24" viewBox="0 0 25 24" fill="none" xmlns="http://www.w3.org/2000/svg">
<g id="Group 427319338">
<path id="Vector" d="M22.7857 13.566H2.21429C1.75963 13.566 1.32359 13.4011 1.0021 13.1075C0.680612 12.814 0.5 12.4159 0.5 12.0008C0.5 11.5856 0.680612 11.1875 1.0021 10.894C1.32359 10.6005 1.75963 10.4355 2.21429 10.4355H22.7857C23.2404 10.4355 23.6764 10.6005 23.9979 10.894C24.3194 11.1875 24.5 11.5856 24.5 12.0008C24.5 12.4159 24.3194 12.814 23.9979 13.1075C23.6764 13.4011 23.2404 13.566 22.7857 13.566Z" fill="#050123"/>
<path id="Vector_2" d="M14.0679 1.71428L14.0679 22.2857C14.0679 22.7404 13.903 23.1764 13.6095 23.4979C13.316 23.8194 12.9178 24 12.5027 24C12.0876 24 11.6895 23.8194 11.3959 23.4979C11.1024 23.1764 10.9375 22.7404 10.9375 22.2857L10.9375 1.71428C10.9375 1.25963 11.1024 0.823591 11.3959 0.5021C11.6895 0.180609 12.0876 0 12.5027 0C12.9178 0 13.316 0.180609 13.6095 0.5021C13.903 0.823591 14.0679 1.25963 14.0679 1.71428Z" fill="#050123"/>
</g>
</svg>
