<svg width="20" height="22" viewBox="0 0 20 22" fill="none" xmlns="http://www.w3.org/2000/svg">
<path id="Icon (Stroke)" fill-rule="evenodd" clip-rule="evenodd" d="M10.0002 2.20002C8.34328 2.20002 7.00011 3.54319 7.00011 5.20007C7.00011 6.85696 8.34328 8.20013 10.0002 8.20013C11.657 8.20013 13.0002 6.85696 13.0002 5.20007C13.0002 3.54319 11.657 2.20002 10.0002 2.20002ZM5.80009 5.20007C5.80009 2.88044 7.68052 1 10.0002 1C12.3198 1 14.2002 2.88044 14.2002 5.20007C14.2002 7.51971 12.3198 9.40015 10.0002 9.40015C7.68052 9.40015 5.80009 7.51971 5.80009 5.20007ZM1.0004 17.1998C1.00067 14.8804 2.88103 13.0002 5.20048 13.0002H14.7999C17.1197 13.0002 19.0002 14.8809 19 17.2007L18.9997 20.8004C18.9996 21.1318 18.731 21.4004 18.3996 21.4004C18.0682 21.4003 17.7996 21.1317 17.7997 20.8003L17.8 17.2006C17.8001 15.5436 16.4569 14.2002 14.7999 14.2002H5.20048C3.54373 14.2002 2.20061 15.5432 2.20043 17.2L2.20002 20.8004C2.19998 21.1318 1.93132 21.4004 1.59994 21.4004C1.26857 21.4003 0.999963 21.1317 1 20.8003L1.0004 17.1998Z" fill="#050123" stroke="#050123" stroke-width="0.5" stroke-linecap="round" stroke-linejoin="round"/>
</svg>
