<svg width="13" height="13" viewBox="0 0 13 13" fill="none" xmlns="http://www.w3.org/2000/svg">
<g id="Group 427319338">
<path id="Vector" d="M12.0714 7.348H0.928571C0.682299 7.348 0.446113 7.25867 0.271972 7.09967C0.0978315 6.94068 0 6.72503 0 6.50017C0 6.27531 0.0978315 6.05966 0.271972 5.90067C0.446113 5.74167 0.682299 5.65234 0.928571 5.65234H12.0714C12.3177 5.65234 12.5539 5.74167 12.728 5.90067C12.9022 6.05966 13 6.27531 13 6.50017C13 6.72503 12.9022 6.94068 12.728 7.09967C12.5539 7.25867 12.3177 7.348 12.0714 7.348Z" fill="black"/>
<path id="Vector_2" d="M7.348 0.928572L7.348 12.0714C7.348 12.3177 7.25867 12.5539 7.09967 12.728C6.94068 12.9022 6.72503 13 6.50017 13C6.27531 13 6.05966 12.9022 5.90067 12.728C5.74167 12.5539 5.65234 12.3177 5.65234 12.0714L5.65234 0.928572C5.65234 0.6823 5.74167 0.446113 5.90067 0.271972C6.05966 0.0978308 6.27531 0 6.50017 0C6.72503 0 6.94068 0.0978308 7.09967 0.271972C7.25867 0.446113 7.348 0.6823 7.348 0.928572Z" fill="black"/>
</g>
</svg>
