<svg width="22" height="22" viewBox="0 0 22 22" fill="none" xmlns="http://www.w3.org/2000/svg">
<path id="Icon (Stroke)" fill-rule="evenodd" clip-rule="evenodd" d="M10.3135 1.40426C5.39305 1.40426 1.40426 5.39305 1.40426 10.3135C1.40426 15.2339 5.39305 19.2227 10.3135 19.2227C12.7419 19.2227 14.9435 18.2511 16.5505 16.6753C18.1996 15.0584 19.2227 12.8054 19.2227 10.3135C19.2227 5.39305 15.2339 1.40426 10.3135 1.40426ZM18.0285 17.1581C19.6451 15.3372 20.6269 12.94 20.6269 10.3135C20.6269 4.6175 16.0095 0 10.3135 0C4.6175 0 0 4.6175 0 10.3135C0 16.0095 4.6175 20.6269 10.3135 20.6269C12.8774 20.6269 15.2228 19.6914 17.0269 18.143L20.8097 21.8025C21.0884 22.0721 21.5329 22.0648 21.8025 21.7861C22.0721 21.5074 22.0648 21.0629 21.7861 20.7932L18.0285 17.1581Z" fill="#050123"/>
</svg>
