<svg width="40" height="40" viewBox="0 0 40 40" fill="none" xmlns="http://www.w3.org/2000/svg">
<g id="Group 427319524">
<rect id="Rectangle 654" width="40" height="40" rx="4" fill="#1EA59A" fill-opacity="0.1"/>
<path id="Icon (Stroke)" fill-rule="evenodd" clip-rule="evenodd" d="M19.3759 11.2766C14.9028 11.2766 11.2766 14.9028 11.2766 19.3759C11.2766 23.849 14.9028 27.4752 19.3759 27.4752C21.5836 27.4752 23.585 26.5919 25.0459 25.1594C26.5451 23.6895 27.4752 21.6413 27.4752 19.3759C27.4752 14.9028 23.849 11.2766 19.3759 11.2766ZM26.3895 25.5983C27.8592 23.9429 28.7518 21.7636 28.7518 19.3759C28.7518 14.1977 24.554 10 19.3759 10C14.1977 10 10 14.1977 10 19.3759C10 24.554 14.1977 28.7518 19.3759 28.7518C21.7067 28.7518 23.8389 27.9012 25.479 26.4936L28.9179 29.8205C29.1713 30.0656 29.5753 30.0589 29.8205 29.8055C30.0656 29.5521 30.0589 29.1481 29.8055 28.9029L26.3895 25.5983Z" fill="#1EA59A"/>
</g>
</svg>
