<svg width="15" height="16" viewBox="0 0 15 16" fill="none" xmlns="http://www.w3.org/2000/svg">
<path id="Vector" d="M12.5 11.3092C11.8667 11.3092 11.3 11.5502 10.8667 11.9277L4.925 8.59438C4.96667 8.40964 5 8.2249 5 8.03213C5 7.83936 4.96667 7.65462 4.925 7.46988L10.8 4.16867C11.25 4.57028 11.8417 4.81928 12.5 4.81928C13.8833 4.81928 15 3.74297 15 2.40964C15 1.07631 13.8833 0 12.5 0C11.1167 0 10 1.07631 10 2.40964C10 2.60241 10.0333 2.78715 10.075 2.97189L4.2 6.27309C3.75 5.87149 3.15833 5.62249 2.5 5.62249C1.11667 5.62249 0 6.6988 0 8.03213C0 9.36546 1.11667 10.4418 2.5 10.4418C3.15833 10.4418 3.75 10.1928 4.2 9.79117L10.1333 13.1325C10.0917 13.3012 10.0667 13.4779 10.0667 13.6546C10.0667 14.9478 11.1583 16 12.5 16C13.8417 16 14.9333 14.9478 14.9333 13.6546C14.9333 12.3614 13.8417 11.3092 12.5 11.3092Z" fill="#050123"/>
</svg>
