<svg width="36" height="36" viewBox="0 0 36 36" fill="none" xmlns="http://www.w3.org/2000/svg">
<g id="Group 427319509">
<rect id="Rectangle 689" width="36" height="36" rx="8" fill="#F2F2F4"/>
<path id="Vector" d="M22.2353 21.9745C21.5647 21.9745 20.9647 22.2296 20.5059 22.6293L14.2147 19.0999C14.2588 18.9043 14.2941 18.7087 14.2941 18.5046C14.2941 18.3005 14.2588 18.1049 14.2147 17.9093L20.4353 14.4139C20.9118 14.8391 21.5382 15.1028 22.2353 15.1028C23.7 15.1028 24.8824 13.9631 24.8824 12.5514C24.8824 11.1396 23.7 10 22.2353 10C20.7706 10 19.5882 11.1396 19.5882 12.5514C19.5882 12.7555 19.6235 12.9511 19.6676 13.1467L13.4471 16.6421C12.9706 16.2169 12.3441 15.9532 11.6471 15.9532C10.1824 15.9532 9 17.0928 9 18.5046C9 19.9164 10.1824 21.056 11.6471 21.056C12.3441 21.056 12.9706 20.7923 13.4471 20.3671L19.7294 23.905C19.6853 24.0836 19.6588 24.2707 19.6588 24.4578C19.6588 25.8271 20.8147 26.9412 22.2353 26.9412C23.6559 26.9412 24.8118 25.8271 24.8118 24.4578C24.8118 23.0886 23.6559 21.9745 22.2353 21.9745Z" fill="#050123"/>
</g>
</svg>
