<svg width="242" height="76" viewBox="0 0 242 76" fill="none" xmlns="http://www.w3.org/2000/svg">
<g id="Group 36957">
<g id="Group 36953">
<g id="Ellipse 3" filter="url(#filter0_d_908_10244)">
<circle cx="38" cy="38" r="18" fill="white"/>
</g>
<path id="Vector" d="M38.9254 29.0011C39.5821 28.9986 40.2389 29.0052 40.8954 29.0209L41.07 29.0272C41.2716 29.0344 41.4705 29.0434 41.7108 29.0542C42.6684 29.0992 43.3217 29.2504 43.895 29.4727C44.489 29.7013 44.9894 30.0109 45.4898 30.5113C45.9473 30.9609 46.3014 31.5048 46.5274 32.1051C46.7497 32.6784 46.9009 33.3327 46.9459 34.2902C46.9567 34.5296 46.9657 34.7294 46.9729 34.931L46.9783 35.1056C46.9943 35.7619 47.0012 36.4183 46.999 37.0747L46.9999 37.7461V38.9251C47.0021 39.5818 46.9952 40.2386 46.9792 40.8951L46.9738 41.0697C46.9666 41.2713 46.9576 41.4702 46.9468 41.7105C46.9018 42.668 46.7488 43.3214 46.5274 43.8947C46.3021 44.4957 45.9479 45.04 45.4898 45.4894C45.0397 45.9469 44.4956 46.301 43.895 46.5271C43.3217 46.7494 42.6684 46.9006 41.7108 46.9456C41.4705 46.9564 41.2716 46.9654 41.07 46.9726L40.8954 46.978C40.2389 46.994 39.5821 47.0009 38.9254 46.9987L38.254 46.9996H37.0759C36.4192 47.0018 35.7625 46.9949 35.1059 46.9789L34.9313 46.9735C34.7177 46.9658 34.5041 46.9568 34.2905 46.9465C33.333 46.9015 32.6796 46.7485 32.1054 46.5271C31.5048 46.3015 30.9609 45.9474 30.5116 45.4894C30.0535 45.0397 29.6991 44.4955 29.473 43.8947C29.2507 43.3214 29.0995 42.668 29.0545 41.7105C29.0445 41.4969 29.0355 41.2833 29.0275 41.0697L29.023 40.8951C29.0064 40.2386 28.9989 39.5818 29.0005 38.9251V37.0747C28.998 36.4183 29.0046 35.7619 29.0203 35.1056L29.0266 34.931C29.0338 34.7294 29.0428 34.5296 29.0536 34.2902C29.0986 33.3318 29.2498 32.6793 29.4721 32.1051C29.6983 31.5045 30.0535 30.9607 30.5125 30.5122C30.9615 30.0538 31.5051 29.6991 32.1054 29.4727C32.6796 29.2504 33.3321 29.0992 34.2905 29.0542L34.9313 29.0272L35.1059 29.0227C35.7622 29.0061 36.4186 28.9986 37.075 29.0002L38.9254 29.0011ZM38.0002 33.501C37.404 33.4925 36.812 33.6027 36.2588 33.825C35.7055 34.0473 35.2019 34.3774 34.7773 34.7961C34.3527 35.2147 34.0155 35.7136 33.7854 36.2636C33.5552 36.8137 33.4367 37.4041 33.4367 38.0004C33.4367 38.5966 33.5552 39.187 33.7854 39.7371C34.0155 40.2871 34.3527 40.786 34.7773 41.2046C35.2019 41.6233 35.7055 41.9534 36.2588 42.1757C36.812 42.398 37.404 42.5082 38.0002 42.4997C39.1936 42.4997 40.3382 42.0257 41.1821 41.1818C42.026 40.3379 42.5001 39.1933 42.5001 37.9999C42.5001 36.8065 42.026 35.6619 41.1821 34.818C40.3382 33.9741 39.1936 33.501 38.0002 33.501ZM38.0002 35.3009C38.3589 35.2943 38.7152 35.3592 39.0485 35.4919C39.3818 35.6245 39.6853 35.8223 39.9412 36.0736C40.1972 36.3248 40.4006 36.6246 40.5394 36.9553C40.6783 37.2861 40.7498 37.6412 40.7499 37.9999C40.7499 38.3586 40.6785 38.7137 40.5398 39.0445C40.401 39.3753 40.1978 39.6751 39.9419 39.9265C39.686 40.1779 39.3826 40.3757 39.0493 40.5085C38.7161 40.6413 38.3598 40.7063 38.0011 40.6998C37.2851 40.6998 36.5983 40.4154 36.092 39.909C35.5857 39.4027 35.3012 38.716 35.3012 37.9999C35.3012 37.2838 35.5857 36.5971 36.092 36.0908C36.5983 35.5844 37.2851 35.3 38.0011 35.3L38.0002 35.3009ZM42.7251 32.151C42.4347 32.1626 42.1601 32.2861 41.9588 32.4957C41.7575 32.7052 41.6451 32.9845 41.6451 33.2751C41.6451 33.5656 41.7575 33.8449 41.9588 34.0545C42.1601 34.264 42.4347 34.3875 42.7251 34.3991C43.0234 34.3991 43.3096 34.2806 43.5205 34.0696C43.7315 33.8587 43.85 33.5725 43.85 33.2742C43.85 32.9758 43.7315 32.6897 43.5205 32.4787C43.3096 32.2677 43.0234 32.1492 42.7251 32.1492V32.151Z" fill="#1EA59A"/>
</g>
<g id="Group 36954">
<circle id="Ellipse 3_2" cx="93" cy="38" r="18" fill="#1EA59A"/>
<path id="Vector_2" d="M102 38.0551C102 33.054 97.9708 29 93.0011 29C88.0292 29.0011 84 33.054 84 38.0562C84 42.5748 87.2913 46.3206 91.5928 47V40.6727H89.3093V38.0562H91.5951V36.0596C91.5951 33.7908 92.9393 32.5377 94.9944 32.5377C95.9798 32.5377 97.009 32.7143 97.009 32.7143V34.9415H95.874C94.757 34.9415 94.4083 35.64 94.4083 36.3566V38.0551H96.9033L96.5051 40.6715H94.4072V46.9989C98.7087 46.3195 102 42.5737 102 38.0551Z" fill="white"/>
</g>
<g id="Group 36955">
<g id="Ellipse 4" filter="url(#filter1_d_908_10244)">
<circle cx="148" cy="38" r="18" fill="white"/>
</g>
<path id="Vector_3" d="M156.976 31.5291L153.952 45.7859C153.724 46.7919 153.13 47.0424 152.285 46.5687L147.678 43.1742L145.456 45.3122C145.209 45.5584 145.004 45.7637 144.53 45.7637L144.861 41.0727L153.398 33.3587C153.769 33.0281 153.317 32.8442 152.821 33.1755L142.267 39.8213L137.724 38.3988C136.735 38.0904 136.718 37.4107 137.93 36.9363L155.701 30.0894C156.524 29.781 157.244 30.2719 156.976 31.5291Z" fill="#1EA59A"/>
</g>
<g id="Group 36956">
<g id="Ellipse 4_2" filter="url(#filter2_d_908_10244)">
<circle cx="204" cy="38" r="18" fill="white"/>
</g>
<path id="Vector_4" d="M201.6 42L207.828 38.4L201.6 34.8V42ZM215.472 32.604C215.628 33.168 215.736 33.924 215.808 34.884C215.892 35.844 215.928 36.672 215.928 37.392L216 38.4C216 41.028 215.808 42.96 215.472 44.196C215.172 45.276 214.476 45.972 213.396 46.272C212.832 46.428 211.8 46.536 210.216 46.608C208.656 46.692 207.228 46.728 205.908 46.728L204 46.8C198.972 46.8 195.84 46.608 194.604 46.272C193.524 45.972 192.828 45.276 192.528 44.196C192.372 43.632 192.264 42.876 192.192 41.916C192.108 40.956 192.072 40.128 192.072 39.408L192 38.4C192 35.772 192.192 33.84 192.528 32.604C192.828 31.524 193.524 30.828 194.604 30.528C195.168 30.372 196.2 30.264 197.784 30.192C199.344 30.108 200.772 30.072 202.092 30.072L204 30C209.028 30 212.16 30.192 213.396 30.528C214.476 30.828 215.172 31.524 215.472 32.604Z" fill="#1EA59A"/>
</g>
</g>
<defs>
<filter id="filter0_d_908_10244" x="0" y="0" width="76" height="76" filterUnits="userSpaceOnUse" color-interpolation-filters="sRGB">
<feFlood flood-opacity="0" result="BackgroundImageFix"/>
<feColorMatrix in="SourceAlpha" type="matrix" values="0 0 0 0 0 0 0 0 0 0 0 0 0 0 0 0 0 0 127 0" result="hardAlpha"/>
<feOffset/>
<feGaussianBlur stdDeviation="10"/>
<feComposite in2="hardAlpha" operator="out"/>
<feColorMatrix type="matrix" values="0 0 0 0 0.117647 0 0 0 0 0.647059 0 0 0 0 0.603922 0 0 0 0.2 0"/>
<feBlend mode="normal" in2="BackgroundImageFix" result="effect1_dropShadow_908_10244"/>
<feBlend mode="normal" in="SourceGraphic" in2="effect1_dropShadow_908_10244" result="shape"/>
</filter>
<filter id="filter1_d_908_10244" x="110" y="0" width="76" height="76" filterUnits="userSpaceOnUse" color-interpolation-filters="sRGB">
<feFlood flood-opacity="0" result="BackgroundImageFix"/>
<feColorMatrix in="SourceAlpha" type="matrix" values="0 0 0 0 0 0 0 0 0 0 0 0 0 0 0 0 0 0 127 0" result="hardAlpha"/>
<feOffset/>
<feGaussianBlur stdDeviation="10"/>
<feComposite in2="hardAlpha" operator="out"/>
<feColorMatrix type="matrix" values="0 0 0 0 0.117647 0 0 0 0 0.647059 0 0 0 0 0.603922 0 0 0 0.2 0"/>
<feBlend mode="normal" in2="BackgroundImageFix" result="effect1_dropShadow_908_10244"/>
<feBlend mode="normal" in="SourceGraphic" in2="effect1_dropShadow_908_10244" result="shape"/>
</filter>
<filter id="filter2_d_908_10244" x="166" y="0" width="76" height="76" filterUnits="userSpaceOnUse" color-interpolation-filters="sRGB">
<feFlood flood-opacity="0" result="BackgroundImageFix"/>
<feColorMatrix in="SourceAlpha" type="matrix" values="0 0 0 0 0 0 0 0 0 0 0 0 0 0 0 0 0 0 127 0" result="hardAlpha"/>
<feOffset/>
<feGaussianBlur stdDeviation="10"/>
<feComposite in2="hardAlpha" operator="out"/>
<feColorMatrix type="matrix" values="0 0 0 0 0.117647 0 0 0 0 0.647059 0 0 0 0 0.603922 0 0 0 0.2 0"/>
<feBlend mode="normal" in2="BackgroundImageFix" result="effect1_dropShadow_908_10244"/>
<feBlend mode="normal" in="SourceGraphic" in2="effect1_dropShadow_908_10244" result="shape"/>
</filter>
</defs>
</svg>
