<svg width="14" height="14" viewBox="0 0 14 14" fill="none" xmlns="http://www.w3.org/2000/svg">
<path id="Vector" d="M13.963 5.02601C13.919 4.89643 13.838 4.78258 13.73 4.6985C13.6221 4.61442 13.4918 4.56379 13.3554 4.55287L9.36467 4.23582L7.63776 0.413622C7.58277 0.290517 7.49331 0.185958 7.38019 0.112563C7.26708 0.0391676 7.13513 7.41055e-05 7.00029 1.05251e-07C6.86544 -7.3895e-05 6.73345 0.0388748 6.62025 0.112146C6.50706 0.185417 6.41749 0.289878 6.36236 0.412923L4.63545 4.23582L0.644722 4.55287C0.51064 4.56349 0.382457 4.61251 0.275508 4.69407C0.16856 4.77562 0.087374 4.88625 0.0416638 5.01273C-0.00404629 5.13921 -0.0123452 5.27618 0.0177599 5.40725C0.0478651 5.53832 0.1151 5.65795 0.21142 5.75181L3.16054 8.62633L2.11753 13.1421C2.08586 13.2788 2.09601 13.4219 2.14666 13.5527C2.19732 13.6836 2.28614 13.7962 2.40159 13.8759C2.51705 13.9557 2.65382 13.9989 2.79414 14C2.93447 14.001 3.07188 13.9599 3.18854 13.8819L7.00006 11.3413L10.8116 13.8819C10.9308 13.9611 11.0714 14.0018 11.2145 13.9987C11.3576 13.9956 11.4963 13.9487 11.612 13.8644C11.7276 13.7801 11.8147 13.6624 11.8614 13.5271C11.9082 13.3919 11.9124 13.2456 11.8735 13.1078L10.5932 8.62843L13.7684 5.77141C13.9763 5.58384 14.0526 5.29128 13.963 5.02601Z" fill="#828091"/>
</svg>
