<svg width="20" height="20" viewBox="0 0 20 20" fill="none" xmlns="http://www.w3.org/2000/svg">
<g id="vuesax/bold/trash">
<g id="trash">
<path id="Vector" d="M17.5574 4.35835C16.2157 4.22502 14.8741 4.12502 13.5241 4.05002V4.04169L13.3407 2.95835C13.2157 2.19169 13.0324 1.04169 11.0824 1.04169H8.89907C6.95741 1.04169 6.77407 2.14169 6.64074 2.95002L6.46574 4.01669C5.69074 4.06669 4.91574 4.11669 4.14074 4.19169L2.44074 4.35835C2.09074 4.39169 1.84074 4.70002 1.87407 5.04169C1.90741 5.38335 2.20741 5.63335 2.55741 5.60002L4.25741 5.43335C8.62407 5.00002 13.0241 5.16669 17.4407 5.60835C17.4657 5.60835 17.4824 5.60835 17.5074 5.60835C17.8241 5.60835 18.0991 5.36669 18.1324 5.04169C18.1574 4.70002 17.9074 4.39169 17.5574 4.35835Z" fill="#EF3340"/>
<path id="Vector_2" d="M16.0264 6.78331C15.8264 6.57498 15.5514 6.45831 15.2681 6.45831H4.73475C4.45142 6.45831 4.16809 6.57498 3.97642 6.78331C3.78475 6.99165 3.67642 7.27498 3.69309 7.56665L4.20975 16.1166C4.30142 17.3833 4.41809 18.9666 7.32642 18.9666H12.6764C15.5848 18.9666 15.7014 17.3916 15.7931 16.1166L16.3098 7.57498C16.3264 7.27498 16.2181 6.99165 16.0264 6.78331ZM11.3848 14.7916H8.60975C8.26809 14.7916 7.98475 14.5083 7.98475 14.1666C7.98475 13.825 8.26809 13.5416 8.60975 13.5416H11.3848C11.7264 13.5416 12.0098 13.825 12.0098 14.1666C12.0098 14.5083 11.7264 14.7916 11.3848 14.7916ZM12.0848 11.4583H7.91809C7.57642 11.4583 7.29309 11.175 7.29309 10.8333C7.29309 10.4916 7.57642 10.2083 7.91809 10.2083H12.0848C12.4264 10.2083 12.7098 10.4916 12.7098 10.8333C12.7098 11.175 12.4264 11.4583 12.0848 11.4583Z" fill="#EF3340"/>
</g>
</g>
</svg>
